<svg xmlns="http://www.w3.org/2000/svg" id="Layer_2" viewBox="0 0 283.23 32.41"><g id="Layer_1-2"><path d="m196.43,31.81h-.54c-2.35,0-4.71,0-7.06,0-.34,0-.54-.11-.74-.39-3.15-4.56-6.31-9.11-9.47-13.66-.06-.08-.13-.16-.28-.33v14.34h-7.03c-.12-.47-.14-30.64-.02-31.07h7.04v13.35s.06.02.1.04c.1-.13.21-.26.3-.39,2.96-4.19,5.92-8.37,8.87-12.56.24-.34.49-.46.9-.46,2.31.02,4.61,0,6.92,0,.15,0,.31,0,.44,0,.03.06.04.07.05.08,0,.01,0,.03,0,.05,0,.03-.02.06-.03.09-.03.06-.07.11-.1.16-3.41,4.92-6.82,9.83-10.23,14.75,0,.01-.01.03-.03.1,3.61,5.25,7.24,10.53,10.93,15.9Z"/><path d="m231.61,11.56v-1.94h6.67v22.16h-6.66v-2.04c-.18.16-.27.24-.36.32-1.41,1.41-3.15,2.1-5.11,2.3-4.8.49-8.63-2.24-10.5-5.96-.97-1.94-1.41-4.01-1.33-6.17.12-3.11,1.2-5.86,3.38-8.12,1.76-1.82,3.93-2.88,6.48-3.09,1.83-.16,3.58.12,5.23.95.72.36,1.34.84,1.91,1.41.07.07.14.13.21.19,0,0,.03,0,.08,0Zm-5.29,14.54c.16,0,.32,0,.48,0,2.15-.1,3.85-1.37,4.52-3.42.44-1.37.44-2.75-.04-4.11-.56-1.59-1.68-2.63-3.31-3.09-.85-.24-1.72-.3-2.6-.16-1.91.31-3.27,1.31-3.99,3.13-.37.94-.45,1.91-.36,2.9.11,1.18.5,2.26,1.32,3.14,1.07,1.16,2.43,1.63,3.98,1.59Z"/><path d="m244.65,15.98h-2.98v-6.4h2.94c.01-.23.02-.4.03-.57.06-1.36.28-2.68.8-3.94.89-2.17,2.47-3.62,4.68-4.38,1.58-.54,3.22-.72,4.88-.67.14,0,.28.03.44.05v6.37c-.2,0-.37,0-.54,0-.49.03-.99.02-1.47.12-1.43.31-2.24,1.5-2.07,3.01h4.01c.13.37.16,5.63.05,6.41-.43,0-.86,0-1.3,0-.46,0-.92,0-1.38,0-.44,0-.89,0-1.4,0,0,.77,0,1.51,0,2.25,0,.76,0,1.52,0,2.28,0,.75,0,1.49,0,2.24v9.02h-6.68v-15.8Z"/><path d="m266.38,9.58h4.57v6.36c-.5.07-1,.03-1.5.04-.49,0-.99,0-1.48,0h-1.54c-.01.19-.03.32-.03.46,0,2.46,0,4.92,0,7.38,0,1.07.47,1.69,1.52,1.85.76.11,1.55.09,2.33.12.22,0,.44,0,.65,0,.1.35.13,5.22.04,5.98-.14.03-.29.07-.44.09-1.52.12-3.05.2-4.57,0-.95-.12-1.87-.34-2.75-.74-1.65-.75-2.61-2.07-3.07-3.78-.26-.97-.38-1.96-.39-2.96-.01-2.59,0-5.17-.01-7.76,0-.19,0-.38,0-.62h-3.43c-.07-.06-.09-.07-.1-.08-.01-.01-.03-.02-.03-.04-.01-.13-.03-.25-.03-.38,0-1.94,0-3.87.02-5.81,0-.03.03-.05.08-.13h3.48v-4.2c2.23-.67,4.43-1.33,6.69-2.01v6.22Z"/><path d="m198.96,31.78V9.61h6.65c.02,1.23,0,2.44.05,3.68.55-1.31,1.4-2.35,2.62-3.07,1.22-.72,2.54-1.04,3.98-1.08v7.51c-.21-.02-.38-.04-.55-.05-1.34-.08-2.63.11-3.81.8-1.41.82-2.1,2.07-2.26,3.65-.02.24-.02.48-.02.71,0,3.14,0,6.28,0,9.42v.59h-6.66Z"/><path d="m42.7.7h2.3c.09.51.03,1.02.04,1.52.01.52,0,1.05,0,1.57v6.19c0,.51,0,1.02,0,1.52,0,.52,0,1.05,0,1.57,0,.51,0,1.01,0,1.51.39.11,16.9.16,18.14.06V.7c.8-.04,1.55-.01,2.29-.02.11.38.15,30.13.06,31.05-.34.1-1.77.12-2.3.01-.07-4.91,0-9.84-.04-14.8h-18.14v14.83h-2.35V.7Z"/><path d="m166.69,21.86h-20.17c.05.72.18,1.37.39,1.99,1.14,3.4,3.51,5.44,7.02,6.12,1.92.38,3.83.25,5.68-.44,1.69-.63,3.05-1.68,4-3.23.02-.04.06-.07.12-.14.63.36,1.25.72,1.92,1.1-.42.65-.85,1.21-1.36,1.72-1.84,1.86-4.09,2.84-6.66,3.18-1.91.25-3.78.12-5.6-.48-4.08-1.36-6.58-4.17-7.53-8.35-.31-1.34-.38-2.69-.22-4.06.63-5.22,4.16-9.02,9.1-9.95,2.46-.46,4.85-.26,7.12.84,2.65,1.29,4.4,3.39,5.44,6.1.64,1.69.94,3.45.8,5.27,0,.08-.02.16-.04.32Zm-20.21-2.21h17.95c-.02-.67-.14-1.29-.31-1.9-.59-2.18-1.75-3.96-3.67-5.2-2-1.29-4.22-1.59-6.51-1.16-3.88.72-6.26,3.09-7.22,6.89-.11.44-.16.89-.24,1.38Z"/><path d="m83.06,32.34c-5-.07-9.43-3.16-11.02-7.76-1.68-4.87-.11-10.14,4-13.18,2.52-1.86,5.39-2.59,8.51-2.2,3.25.41,5.9,1.9,7.89,4.5,1.31,1.7,2.04,3.64,2.26,5.77.33,3.35-.58,6.32-2.78,8.86-1.74,2.02-3.97,3.24-6.59,3.73-.75.14-1.51.19-2.27.28Zm-9.46-11.66c.08.69.11,1.39.26,2.07,1.38,6.36,8.26,9.15,13.7,6.33,3.89-2.02,5.73-6.44,4.67-10.77-1.23-5.06-6.29-8.19-11.76-6.73-4.06,1.08-6.87,4.83-6.87,9.1Z"/><path d="m116.18,9.61h2.21v22.16h-2.2c-.03-1.33-.02-2.67-.07-4.03-.06.08-.12.16-.17.25-1.06,1.78-2.5,3.12-4.5,3.77-2.4.78-4.8.76-7.13-.25-2.49-1.08-3.92-3.06-4.49-5.66-.19-.86-.29-1.76-.3-2.64-.03-4.39,0-8.79,0-13.18,0-.12.01-.25.02-.41h2.25c0,.15.02.3.02.45,0,4.41,0,8.82,0,13.23,0,1.04.12,2.06.49,3.04.77,2.02,2.23,3.22,4.34,3.65,1.61.33,3.2.24,4.74-.33,2.31-.86,3.67-2.58,4.36-4.89.26-.87.41-1.76.41-2.67,0-3.97.01-7.93.02-11.9,0-.19,0-.37,0-.59Z"/><path d="m139.69,13.5c-.09.07-.13.12-.18.15-.52.3-1.04.6-1.56.91-.06-.05-.11-.07-.12-.1-.82-1.75-2.25-2.73-4.1-3.07-1.59-.29-3.17-.23-4.65.52-1.14.57-1.95,1.43-2.18,2.72-.25,1.44.04,2.52,1.32,3.4.77.53,1.63.85,2.52,1.11.93.27,1.87.5,2.8.77.91.27,1.83.54,2.73.85.74.25,1.42.63,2.05,1.1,1.19.87,1.82,2.05,1.97,3.5.21,2.09-.54,3.79-2.16,5.11-1.16.95-2.52,1.45-3.99,1.68-2.22.35-4.37.12-6.43-.81-1.65-.75-2.88-1.94-3.66-3.59-.05-.11-.09-.23-.15-.39.61-.35,1.22-.7,1.85-1.06.07.14.12.25.17.37.73,1.61,1.99,2.6,3.65,3.11,1.71.53,3.44.55,5.17.1.92-.24,1.76-.65,2.41-1.37.96-1.06,1.15-2.3.76-3.64-.25-.86-.9-1.42-1.66-1.81-.66-.34-1.36-.62-2.06-.85-.94-.3-1.89-.54-2.85-.79-1.23-.32-2.45-.68-3.59-1.24-.41-.2-.81-.45-1.18-.72-1.13-.81-1.78-1.93-1.92-3.31-.25-2.46.74-4.37,2.77-5.71,1.8-1.18,3.82-1.48,5.94-1.24,1.33.15,2.57.55,3.7,1.28,1.16.75,2.03,1.76,2.64,3.04Z"/><path d="m274.79,28.22c0-2.27,1.94-4.25,4.22-4.22,2.28.03,4.23,1.8,4.23,4.21,0,2.41-1.96,4.18-4.24,4.2-2.26.02-4.19-1.93-4.2-4.19Z"/><path d="m37.88,26.62h-10.5c-.11,1.43,1.11,3.19,2.66,3.88,1.11.5,2.28.55,3.46.32,1.19-.24,2.12-.89,2.8-1.94.33.19.62.36.95.55-.08.13-.13.24-.2.34-.94,1.27-2.23,1.95-3.77,2.19-1.17.18-2.31.07-3.42-.36-1.77-.68-2.92-1.95-3.46-3.74-.56-1.86-.33-3.65.73-5.29.84-1.3,2.04-2.09,3.56-2.44,1.31-.3,2.59-.23,3.82.35,1.78.84,2.78,2.3,3.21,4.18.08.34.12.69.15,1.03.02.28,0,.56,0,.92Zm-10.51-1.18c.72.1,8.95.07,9.29-.02-.12-2.34-1.86-4.37-4.55-4.36-2.62.02-4.81,2.05-4.74,4.38Z"/><path d="m23.61,31.78h-1.15c0-.18-.02-.33-.02-.49,0-2.3,0-4.6,0-6.9,0-1.18-.4-2.18-1.45-2.83-1.92-1.19-4.73-.3-5.61,1.78-.25.59-.38,1.21-.38,1.85,0,1.73-.01,3.46-.02,5.19,0,.46,0,.92,0,1.4h-1.15c-.04-5.37,0-10.74-.03-16.14.39-.11.75-.08,1.17-.02v6.52s.05.02.08.03c.07-.09.15-.17.22-.27,1.15-1.61,2.74-2.11,4.64-1.87,1.3.17,2.33.79,3.03,1.92.41.66.6,1.4.65,2.16.03.47.05.95.05,1.43,0,1.94,0,3.87-.02,5.81,0,.13-.01.25-.02.43Z"/><path d="m0,16.76v-1.1c.37-.1,10.95-.12,11.45-.01v1.07c-.56.04-1.11.02-1.66.02-.57,0-1.14,0-1.72,0-.55,0-1.11,0-1.71,0v15.04h-1.27v-15.02H0Z"/></g></svg>